<mxfile host="app.diagrams.net" modified="2023-07-20T05:21:03.081Z" agent="Mozilla/5.0 (Windows NT 10.0; Win64; x64; rv:109.0) Gecko/20100101 Firefox/115.0" etag="VtE_XX5FoIIqCG8dwHHT" version="21.6.1" type="github">
  <diagram name="Page-1" id="Ydfbo8ijFInQbnIQcWor">
    <mxGraphModel dx="1434" dy="774" grid="1" gridSize="10" guides="1" tooltips="1" connect="1" arrows="1" fold="1" page="1" pageScale="1" pageWidth="1100" pageHeight="850" math="0" shadow="0">
      <root>
        <mxCell id="0" />
        <mxCell id="1" parent="0" />
        <mxCell id="kMu4B0mbjkcWy0vi4Cd8-1" style="edgeStyle=orthogonalEdgeStyle;rounded=0;orthogonalLoop=1;jettySize=auto;html=1;exitX=0.5;exitY=1;exitDx=0;exitDy=0;entryX=0.5;entryY=0;entryDx=0;entryDy=0;" edge="1" parent="1" source="kMu4B0mbjkcWy0vi4Cd8-5" target="kMu4B0mbjkcWy0vi4Cd8-8">
          <mxGeometry relative="1" as="geometry" />
        </mxCell>
        <mxCell id="kMu4B0mbjkcWy0vi4Cd8-2" style="edgeStyle=orthogonalEdgeStyle;rounded=0;orthogonalLoop=1;jettySize=auto;html=1;exitX=0.5;exitY=1;exitDx=0;exitDy=0;entryX=0.5;entryY=0;entryDx=0;entryDy=0;" edge="1" parent="1" source="kMu4B0mbjkcWy0vi4Cd8-5" target="kMu4B0mbjkcWy0vi4Cd8-13">
          <mxGeometry relative="1" as="geometry" />
        </mxCell>
        <mxCell id="kMu4B0mbjkcWy0vi4Cd8-3" style="edgeStyle=orthogonalEdgeStyle;rounded=0;orthogonalLoop=1;jettySize=auto;html=1;exitX=0.5;exitY=1;exitDx=0;exitDy=0;entryX=0.5;entryY=0;entryDx=0;entryDy=0;" edge="1" parent="1" source="kMu4B0mbjkcWy0vi4Cd8-5" target="kMu4B0mbjkcWy0vi4Cd8-16">
          <mxGeometry relative="1" as="geometry" />
        </mxCell>
        <mxCell id="kMu4B0mbjkcWy0vi4Cd8-4" style="edgeStyle=orthogonalEdgeStyle;rounded=0;orthogonalLoop=1;jettySize=auto;html=1;exitX=0.5;exitY=1;exitDx=0;exitDy=0;entryX=0.5;entryY=0;entryDx=0;entryDy=0;" edge="1" parent="1" source="kMu4B0mbjkcWy0vi4Cd8-5" target="kMu4B0mbjkcWy0vi4Cd8-19">
          <mxGeometry relative="1" as="geometry" />
        </mxCell>
        <mxCell id="kMu4B0mbjkcWy0vi4Cd8-5" value="Sistem Monitoring Barang Habis Pakai" style="rounded=0;whiteSpace=wrap;html=1;" vertex="1" parent="1">
          <mxGeometry x="291" y="20" width="246" height="60" as="geometry" />
        </mxCell>
        <mxCell id="kMu4B0mbjkcWy0vi4Cd8-6" style="edgeStyle=orthogonalEdgeStyle;rounded=0;orthogonalLoop=1;jettySize=auto;html=1;exitX=0.5;exitY=1;exitDx=0;exitDy=0;entryX=0;entryY=0.5;entryDx=0;entryDy=0;" edge="1" parent="1" source="kMu4B0mbjkcWy0vi4Cd8-8" target="kMu4B0mbjkcWy0vi4Cd8-20">
          <mxGeometry relative="1" as="geometry" />
        </mxCell>
        <mxCell id="kMu4B0mbjkcWy0vi4Cd8-7" style="edgeStyle=orthogonalEdgeStyle;rounded=0;orthogonalLoop=1;jettySize=auto;html=1;exitX=0.5;exitY=1;exitDx=0;exitDy=0;entryX=0;entryY=0.5;entryDx=0;entryDy=0;" edge="1" parent="1" source="kMu4B0mbjkcWy0vi4Cd8-8" target="kMu4B0mbjkcWy0vi4Cd8-21">
          <mxGeometry relative="1" as="geometry">
            <Array as="points">
              <mxPoint x="110" y="250" />
              <mxPoint x="70" y="250" />
              <mxPoint x="70" y="390" />
            </Array>
          </mxGeometry>
        </mxCell>
        <mxCell id="kMu4B0mbjkcWy0vi4Cd8-8" value="1. Proses Login" style="rounded=0;whiteSpace=wrap;html=1;" vertex="1" parent="1">
          <mxGeometry x="50" y="170" width="120" height="60" as="geometry" />
        </mxCell>
        <mxCell id="kMu4B0mbjkcWy0vi4Cd8-9" style="edgeStyle=orthogonalEdgeStyle;rounded=0;orthogonalLoop=1;jettySize=auto;html=1;exitX=0.5;exitY=1;exitDx=0;exitDy=0;entryX=0;entryY=0.5;entryDx=0;entryDy=0;" edge="1" parent="1" source="kMu4B0mbjkcWy0vi4Cd8-13" target="kMu4B0mbjkcWy0vi4Cd8-22">
          <mxGeometry relative="1" as="geometry" />
        </mxCell>
        <mxCell id="kMu4B0mbjkcWy0vi4Cd8-10" style="edgeStyle=orthogonalEdgeStyle;rounded=0;orthogonalLoop=1;jettySize=auto;html=1;exitX=0.5;exitY=1;exitDx=0;exitDy=0;entryX=0;entryY=0.5;entryDx=0;entryDy=0;" edge="1" parent="1" source="kMu4B0mbjkcWy0vi4Cd8-13" target="kMu4B0mbjkcWy0vi4Cd8-24">
          <mxGeometry relative="1" as="geometry">
            <Array as="points">
              <mxPoint x="320" y="250" />
              <mxPoint x="290" y="250" />
              <mxPoint x="290" y="390" />
            </Array>
          </mxGeometry>
        </mxCell>
        <mxCell id="kMu4B0mbjkcWy0vi4Cd8-11" style="edgeStyle=orthogonalEdgeStyle;rounded=0;orthogonalLoop=1;jettySize=auto;html=1;exitX=0.5;exitY=1;exitDx=0;exitDy=0;entryX=0;entryY=0.5;entryDx=0;entryDy=0;" edge="1" parent="1" source="kMu4B0mbjkcWy0vi4Cd8-13" target="kMu4B0mbjkcWy0vi4Cd8-23">
          <mxGeometry relative="1" as="geometry">
            <Array as="points">
              <mxPoint x="320" y="250" />
              <mxPoint x="290" y="250" />
              <mxPoint x="290" y="490" />
            </Array>
          </mxGeometry>
        </mxCell>
        <mxCell id="kMu4B0mbjkcWy0vi4Cd8-12" style="edgeStyle=orthogonalEdgeStyle;rounded=0;orthogonalLoop=1;jettySize=auto;html=1;exitX=0.5;exitY=1;exitDx=0;exitDy=0;entryX=0;entryY=0.5;entryDx=0;entryDy=0;" edge="1" parent="1" source="kMu4B0mbjkcWy0vi4Cd8-13" target="kMu4B0mbjkcWy0vi4Cd8-25">
          <mxGeometry relative="1" as="geometry">
            <Array as="points">
              <mxPoint x="320" y="250" />
              <mxPoint x="290" y="250" />
              <mxPoint x="290" y="590" />
            </Array>
          </mxGeometry>
        </mxCell>
        <mxCell id="kMu4B0mbjkcWy0vi4Cd8-13" value="2. Master Data" style="rounded=0;whiteSpace=wrap;html=1;" vertex="1" parent="1">
          <mxGeometry x="260" y="170" width="120" height="60" as="geometry" />
        </mxCell>
        <mxCell id="kMu4B0mbjkcWy0vi4Cd8-14" style="edgeStyle=orthogonalEdgeStyle;rounded=0;orthogonalLoop=1;jettySize=auto;html=1;exitX=0.5;exitY=1;exitDx=0;exitDy=0;entryX=0;entryY=0.5;entryDx=0;entryDy=0;" edge="1" parent="1" source="kMu4B0mbjkcWy0vi4Cd8-16" target="kMu4B0mbjkcWy0vi4Cd8-26">
          <mxGeometry relative="1" as="geometry" />
        </mxCell>
        <mxCell id="kMu4B0mbjkcWy0vi4Cd8-15" style="edgeStyle=orthogonalEdgeStyle;rounded=0;orthogonalLoop=1;jettySize=auto;html=1;exitX=0.5;exitY=1;exitDx=0;exitDy=0;entryX=0;entryY=0.5;entryDx=0;entryDy=0;" edge="1" parent="1" source="kMu4B0mbjkcWy0vi4Cd8-16" target="kMu4B0mbjkcWy0vi4Cd8-27">
          <mxGeometry relative="1" as="geometry">
            <Array as="points">
              <mxPoint x="530" y="250" />
              <mxPoint x="490" y="250" />
              <mxPoint x="490" y="390" />
            </Array>
          </mxGeometry>
        </mxCell>
        <mxCell id="kMu4B0mbjkcWy0vi4Cd8-16" value="3. Transaksi Barang" style="rounded=0;whiteSpace=wrap;html=1;" vertex="1" parent="1">
          <mxGeometry x="470" y="170" width="120" height="60" as="geometry" />
        </mxCell>
        <mxCell id="kMu4B0mbjkcWy0vi4Cd8-17" style="edgeStyle=orthogonalEdgeStyle;rounded=0;orthogonalLoop=1;jettySize=auto;html=1;exitX=0.5;exitY=1;exitDx=0;exitDy=0;entryX=0;entryY=0.5;entryDx=0;entryDy=0;" edge="1" parent="1" source="kMu4B0mbjkcWy0vi4Cd8-19" target="kMu4B0mbjkcWy0vi4Cd8-28">
          <mxGeometry relative="1" as="geometry" />
        </mxCell>
        <mxCell id="kMu4B0mbjkcWy0vi4Cd8-18" style="edgeStyle=orthogonalEdgeStyle;rounded=0;orthogonalLoop=1;jettySize=auto;html=1;exitX=0.5;exitY=1;exitDx=0;exitDy=0;entryX=0;entryY=0.5;entryDx=0;entryDy=0;" edge="1" parent="1" source="kMu4B0mbjkcWy0vi4Cd8-19" target="kMu4B0mbjkcWy0vi4Cd8-29">
          <mxGeometry relative="1" as="geometry">
            <Array as="points">
              <mxPoint x="740" y="250" />
              <mxPoint x="687" y="250" />
              <mxPoint x="687" y="390" />
            </Array>
          </mxGeometry>
        </mxCell>
        <mxCell id="kMu4B0mbjkcWy0vi4Cd8-32" style="edgeStyle=orthogonalEdgeStyle;rounded=0;orthogonalLoop=1;jettySize=auto;html=1;exitX=0.5;exitY=1;exitDx=0;exitDy=0;entryX=0;entryY=0.5;entryDx=0;entryDy=0;" edge="1" parent="1" source="kMu4B0mbjkcWy0vi4Cd8-19" target="kMu4B0mbjkcWy0vi4Cd8-30">
          <mxGeometry relative="1" as="geometry">
            <Array as="points">
              <mxPoint x="740" y="250" />
              <mxPoint x="687" y="250" />
              <mxPoint x="687" y="480" />
            </Array>
          </mxGeometry>
        </mxCell>
        <mxCell id="kMu4B0mbjkcWy0vi4Cd8-33" style="edgeStyle=orthogonalEdgeStyle;rounded=0;orthogonalLoop=1;jettySize=auto;html=1;exitX=0.5;exitY=1;exitDx=0;exitDy=0;entryX=0;entryY=0.5;entryDx=0;entryDy=0;" edge="1" parent="1" source="kMu4B0mbjkcWy0vi4Cd8-19" target="kMu4B0mbjkcWy0vi4Cd8-31">
          <mxGeometry relative="1" as="geometry">
            <Array as="points">
              <mxPoint x="740" y="250" />
              <mxPoint x="687" y="250" />
              <mxPoint x="687" y="570" />
            </Array>
          </mxGeometry>
        </mxCell>
        <mxCell id="kMu4B0mbjkcWy0vi4Cd8-19" value="4. Pelaporan" style="rounded=0;whiteSpace=wrap;html=1;" vertex="1" parent="1">
          <mxGeometry x="680" y="170" width="120" height="60" as="geometry" />
        </mxCell>
        <mxCell id="kMu4B0mbjkcWy0vi4Cd8-20" value="1.1. Masukan username" style="whiteSpace=wrap;html=1;rounded=0;" vertex="1" parent="1">
          <mxGeometry x="90" y="270" width="120" height="60" as="geometry" />
        </mxCell>
        <mxCell id="kMu4B0mbjkcWy0vi4Cd8-21" value="1.2. Masukan password" style="whiteSpace=wrap;html=1;rounded=0;" vertex="1" parent="1">
          <mxGeometry x="90" y="360" width="120" height="60" as="geometry" />
        </mxCell>
        <mxCell id="kMu4B0mbjkcWy0vi4Cd8-22" value="2.1. Menampilkan Data Barang" style="whiteSpace=wrap;html=1;rounded=0;" vertex="1" parent="1">
          <mxGeometry x="310" y="270" width="120" height="60" as="geometry" />
        </mxCell>
        <mxCell id="kMu4B0mbjkcWy0vi4Cd8-23" value="2.3. Menampilkan Data Gudang" style="whiteSpace=wrap;html=1;rounded=0;" vertex="1" parent="1">
          <mxGeometry x="310" y="460" width="120" height="60" as="geometry" />
        </mxCell>
        <mxCell id="kMu4B0mbjkcWy0vi4Cd8-24" value="2.2. Menampilkan Data Supplier" style="whiteSpace=wrap;html=1;rounded=0;" vertex="1" parent="1">
          <mxGeometry x="310" y="360" width="120" height="60" as="geometry" />
        </mxCell>
        <mxCell id="kMu4B0mbjkcWy0vi4Cd8-25" value="2.4. Menampilkan Data Kategori" style="whiteSpace=wrap;html=1;rounded=0;" vertex="1" parent="1">
          <mxGeometry x="310" y="560" width="120" height="60" as="geometry" />
        </mxCell>
        <mxCell id="kMu4B0mbjkcWy0vi4Cd8-26" value="3.1. Masukan Barang Masuk" style="whiteSpace=wrap;html=1;rounded=0;" vertex="1" parent="1">
          <mxGeometry x="510" y="270" width="120" height="60" as="geometry" />
        </mxCell>
        <mxCell id="kMu4B0mbjkcWy0vi4Cd8-27" value="3.2. Masukan Barang Keluar" style="whiteSpace=wrap;html=1;rounded=0;" vertex="1" parent="1">
          <mxGeometry x="510" y="360" width="120" height="60" as="geometry" />
        </mxCell>
        <mxCell id="kMu4B0mbjkcWy0vi4Cd8-28" value="4.1 Laporan Barang Masuk" style="whiteSpace=wrap;html=1;rounded=0;" vertex="1" parent="1">
          <mxGeometry x="707" y="270" width="120" height="60" as="geometry" />
        </mxCell>
        <mxCell id="kMu4B0mbjkcWy0vi4Cd8-29" value="4.2. Laporan Barang Keluar" style="whiteSpace=wrap;html=1;rounded=0;" vertex="1" parent="1">
          <mxGeometry x="707" y="360" width="120" height="60" as="geometry" />
        </mxCell>
        <mxCell id="kMu4B0mbjkcWy0vi4Cd8-30" value="4.3 Laporan Stok Barang" style="whiteSpace=wrap;html=1;rounded=0;" vertex="1" parent="1">
          <mxGeometry x="707" y="450" width="120" height="60" as="geometry" />
        </mxCell>
        <mxCell id="kMu4B0mbjkcWy0vi4Cd8-31" value="4.4. Laporan Data Supplier" style="whiteSpace=wrap;html=1;rounded=0;" vertex="1" parent="1">
          <mxGeometry x="707" y="540" width="120" height="60" as="geometry" />
        </mxCell>
      </root>
    </mxGraphModel>
  </diagram>
</mxfile>
